<svg width="42" height="42" viewBox="0 0 42 42" fill="none" xmlns="http://www.w3.org/2000/svg">
<g clip-path="url(#clip0_16_996)">
<path d="M41.5 21C41.5 9.67816 32.3218 0.5 21 0.5C9.67816 0.5 0.5 9.67816 0.5 21C0.5 32.3218 9.67816 41.5 21 41.5C32.3218 41.5 41.5 32.3218 41.5 21Z" fill="#121129" stroke="#121129"/>
<path d="M14.387 12.1843C14.8721 11.874 15.4489 11.7391 16.0213 11.8023C16.5937 11.8654 17.1272 12.1227 17.533 12.5313L17.6739 12.6864L18.982 14.2421C19.379 14.7143 19.6284 15.2927 19.6992 15.9056C19.7701 16.5184 19.6592 17.1385 19.3804 17.6888L19.2645 17.8945L18.3346 19.4325C18.1679 19.7129 18.5756 20.4996 19.8048 21.6939C20.911 22.7685 21.6848 23.1974 21.9911 23.1459L22.0432 23.1312L22.104 23.1008L24.3736 21.6362C24.6785 21.4391 25.0338 21.3339 25.3969 21.3334C25.76 21.3329 26.1155 21.437 26.421 21.6332L26.5709 21.7413L28.862 23.5539C29.311 23.9092 29.6257 24.4068 29.7541 24.9648C29.8826 25.5228 29.8172 26.1079 29.5687 26.6238L29.4641 26.8184L28.9838 27.6278C28.5522 28.3538 27.9212 28.9406 27.1658 29.3185C26.4105 29.6963 25.5625 29.8493 24.7227 29.7593C22.1089 29.4788 19.3654 27.9229 16.4788 25.1188C13.5862 22.3072 11.9493 19.6058 11.5979 16.9945C11.4918 16.205 11.6015 15.4016 11.9153 14.6695C12.2291 13.9374 12.7353 13.304 13.3801 12.8365L13.5921 12.6926L14.387 12.1843Z" fill="white"/>
</g>
<defs>
<clipPath id="clip0_16_996">
<rect width="42" height="42" fill="white"/>
</clipPath>
</defs>
</svg>
