<svg width="251" height="250" viewBox="0 0 251 250" fill="none" xmlns="http://www.w3.org/2000/svg">
<rect x="27" y="26.5" width="197" height="197" rx="98.5" fill="#121129" stroke="#3631A7" stroke-width="3"/>
<rect x="1" y="0.5" width="249" height="249" rx="124.5" stroke="#222142" stroke-opacity="0.75"/>
<g clip-path="url(#clip0_46_30)">
<path d="M149.966 119.478C148.812 114.048 145.752 109.106 141.348 105.562C136.845 101.959 131.248 99.9972 125.48 100C118.681 100 112.33 102.619 107.583 107.376C102.995 111.979 100.48 118.056 100.5 124.483C100.5 129.196 101.884 133.804 104.479 137.738L104.964 138.413L102.286 150L115.098 146.812C115.098 146.812 115.355 146.898 115.545 146.971C115.734 147.043 117.367 147.669 119.099 148.154C120.539 148.556 123.535 149.158 125.882 149.158C132.539 149.158 138.756 146.58 143.385 141.897C147.973 137.251 150.5 131.074 150.5 124.497C150.5 122.809 150.321 121.127 149.966 119.478ZM114.786 128.571C114.079 128.571 113.389 128.362 112.802 127.969C112.214 127.577 111.757 127.019 111.486 126.367C111.216 125.714 111.145 124.996 111.283 124.303C111.421 123.61 111.761 122.974 112.26 122.475C112.76 121.975 113.396 121.635 114.089 121.497C114.782 121.359 115.5 121.43 116.153 121.7C116.805 121.971 117.363 122.428 117.755 123.016C118.148 123.603 118.357 124.294 118.357 125C118.357 125.947 117.981 126.856 117.311 127.525C116.641 128.195 115.733 128.571 114.786 128.571ZM125.5 128.571C124.794 128.571 124.103 128.362 123.516 127.969C122.929 127.577 122.471 127.019 122.2 126.367C121.93 125.714 121.859 124.996 121.997 124.303C122.135 123.61 122.475 122.974 122.975 122.475C123.474 121.975 124.11 121.635 124.803 121.497C125.496 121.359 126.214 121.43 126.867 121.7C127.519 121.971 128.077 122.428 128.47 123.016C128.862 123.603 129.072 124.294 129.072 125C129.072 125.947 128.695 126.856 128.025 127.525C127.356 128.195 126.447 128.571 125.5 128.571ZM136.214 128.571C135.508 128.571 134.818 128.362 134.23 127.969C133.643 127.577 133.185 127.019 132.915 126.367C132.644 125.714 132.574 124.996 132.711 124.303C132.849 123.61 133.189 122.974 133.689 122.475C134.188 121.975 134.825 121.635 135.518 121.497C136.21 121.359 136.928 121.43 137.581 121.7C138.234 121.971 138.791 122.428 139.184 123.016C139.576 123.603 139.786 124.294 139.786 125C139.786 125.947 139.41 126.856 138.74 127.525C138.07 128.195 137.161 128.571 136.214 128.571Z" fill="white"/>
</g>
<defs>
<clipPath id="clip0_46_30">
<rect width="50" height="50" fill="white" transform="translate(100.5 100)"/>
</clipPath>
</defs>
</svg>
