<svg width="368" height="317" viewBox="0 0 368 317" fill="none" xmlns="http://www.w3.org/2000/svg">
<path d="M297.777 10.5205C260.205 13.3519 203.814 53.5345 225.215 138.01C246.616 222.485 197.647 236.039 170.487 232.257" stroke="white"/>
<path d="M142.581 242.015C136.194 242.015 131.017 236.838 131.017 230.451C131.017 224.064 136.194 218.886 142.581 218.886C148.968 218.886 154.146 224.064 154.146 230.451C154.146 236.838 148.968 242.015 142.581 242.015Z" stroke="white"/>
<path d="M112.969 230.451C82.9898 227.709 23.2517 240.98 24.1292 316" stroke="white"/>
<path d="M211.131 187.676C211.496 198.826 203.782 220.141 170.001 216.192" stroke="white"/>
<path d="M28.2822 95.8923C27.2822 96.4696 27.2822 97.913 28.2822 98.4903L57.9438 115.616C58.9438 116.193 60.1938 115.471 60.1938 114.317V80.0662C60.1938 78.9115 58.9438 78.1898 57.9438 78.7671L28.2822 95.8923Z" stroke="#F9850F" stroke-width="3"/>
<path d="M4.74999 50.6072C3.08334 51.5695 3.08334 53.9751 4.74999 54.9373L23.718 65.8885C25.3846 66.8507 27.468 65.6479 27.468 63.7234V41.8211C27.468 39.8966 25.3846 38.6938 23.718 39.656L4.74999 50.6072Z" stroke="white"/>
</svg>
