<svg width="251" height="250" viewBox="0 0 251 250" fill="none" xmlns="http://www.w3.org/2000/svg">
<rect x="27" y="24.8334" width="197" height="197" rx="98.5" fill="#121129" stroke="#3631A7" stroke-width="3"/>
<rect x="1" y="0.5" width="249" height="249" rx="124.5" stroke="#222142"/>
<path d="M100 124.562C100 123.947 100.125 123.337 100.367 122.769C100.609 122.2 100.964 121.683 101.412 121.248C101.859 120.813 102.391 120.467 102.976 120.232C103.56 119.996 104.187 119.875 104.82 119.875C105.453 119.875 106.08 119.996 106.665 120.232C107.25 120.467 107.781 120.813 108.228 121.248C108.676 121.683 109.031 122.2 109.273 122.769C109.516 123.337 109.64 123.947 109.64 124.562V143.312C109.64 144.556 109.132 145.748 108.228 146.627C107.325 147.506 106.098 148 104.82 148C103.542 148 102.316 147.506 101.412 146.627C100.508 145.748 100 144.556 100 143.312V124.562ZM112.854 124.041V141.009C112.853 142.171 113.185 143.309 113.813 144.297C114.441 145.286 115.339 146.084 116.408 146.603L116.568 146.681C118.351 147.548 120.317 147.999 122.311 148H139.715C141.201 148.001 142.641 147.5 143.791 146.584C144.941 145.668 145.728 144.392 146.019 142.975L149.875 124.225C150.062 123.318 150.039 122.383 149.809 121.486C149.578 120.589 149.146 119.753 148.543 119.038C147.941 118.323 147.182 117.747 146.323 117.351C145.464 116.955 144.525 116.75 143.574 116.75H132.134V104.25C132.134 102.592 131.457 101.003 130.252 99.8306C129.047 98.6585 127.412 98 125.707 98C124.855 98 124.038 98.3292 123.435 98.9153C122.832 99.5013 122.494 100.296 122.494 101.125V103.209C122.494 105.914 121.592 108.546 119.923 110.709L115.424 116.541C113.756 118.704 112.854 121.336 112.854 124.041Z" fill="white"/>
</svg>
