<svg width="121" height="120" viewBox="0 0 121 120" fill="none" xmlns="http://www.w3.org/2000/svg">
<path d="M22.32 101.654L13.8975 7.9375H106.477L98.0438 101.639L60.1313 112.062L22.32 101.654Z" fill="#1572B6"/>
<path d="M60.1875 104.097L90.825 95.674L98.0325 15.6018H60.1875V104.097Z" fill="#33A9DC"/>
<path d="M60.1875 49.5541H75.525L76.5825 37.7843H60.1875V26.2896H89.25L88.9725 29.3725L86.1262 61.0488H60.1875V49.5541Z" fill="white"/>
<path d="M60.2587 79.4044L60.2062 79.4193L47.2987 75.9609L46.4737 66.7942H34.8374L36.4612 84.8413L60.2024 91.3788L60.2587 91.3639V79.4044Z" fill="#EBEBEB"/>
<path d="M74.5385 60.5615L73.1435 75.9534L60.2173 79.4119V91.3714L83.9773 84.8412L84.1535 82.9001L86.1673 60.5615H74.5385Z" fill="white"/>
<path d="M60.2287 26.2896V37.7843H32.2312L31.9987 35.1997L31.4699 29.3725L31.1924 26.2896H60.2287ZM60.1874 49.5541V61.0488H47.4412L47.2087 58.4641L46.6837 52.637L46.4062 49.5541H60.1874Z" fill="#EBEBEB"/>
</svg>
