<svg width="1402" height="1022" viewBox="0 0 1402 1022" fill="none" xmlns="http://www.w3.org/2000/svg">
<mask id="mask0_31_130" style="mask-type:luminance" maskUnits="userSpaceOnUse" x="0" y="0" width="1402" height="1022">
<path d="M0 0V1021.88H1402V0H0Z" fill="white"/>
</mask>
<g mask="url(#mask0_31_130)">
<path d="M0 0V1021.88H1402V0H0Z" fill="#131126"/>
<g filter="url(#filter0_f_31_130)">
<path d="M423.39 674.796C327.303 541.398 358.201 355.832 492.404 260.321L560.8 211.643C695.002 116.132 881.689 146.845 977.778 280.242L1025.92 347.083C1122.01 480.479 1091.11 666.046 956.911 761.558L888.514 810.234C754.311 905.746 567.624 875.034 471.536 741.636L423.39 674.796Z" fill="url(#paint0_radial_31_130)"/>
</g>
<g style="mix-blend-mode:overlay" filter="url(#filter1_f_31_130)">
<path d="M995.891 705.962C931.101 839.671 769.024 895.613 634.508 831.211C499.992 766.809 442.96 605.965 507.75 472.256C572.542 338.547 734.619 282.606 869.135 347.007C1003.65 411.41 1060.68 572.254 995.891 705.962Z" fill="url(#paint1_radial_31_130)"/>
</g>
<g filter="url(#filter2_f_31_130)">
<path d="M594.694 501.567C545.882 602.302 423.775 644.447 322.432 595.927C221.089 547.409 178.123 426.231 226.936 325.496C275.748 224.761 397.855 182.617 499.198 231.135C600.541 279.655 643.507 400.832 594.694 501.567Z" fill="url(#paint2_radial_31_130)"/>
</g>
</g>
<defs>
<filter id="filter0_f_31_130" x="259.215" y="47.8032" width="930.885" height="926.272" filterUnits="userSpaceOnUse" color-interpolation-filters="sRGB">
<feFlood flood-opacity="0" result="BackgroundImageFix"/>
<feBlend mode="normal" in="SourceGraphic" in2="BackgroundImageFix" result="shape"/>
<feGaussianBlur stdDeviation="54.1446" result="effect1_foregroundBlur_31_130"/>
</filter>
<filter id="filter1_f_31_130" x="375.014" y="214.288" width="753.613" height="749.642" filterUnits="userSpaceOnUse" color-interpolation-filters="sRGB">
<feFlood flood-opacity="0" result="BackgroundImageFix"/>
<feBlend mode="normal" in="SourceGraphic" in2="BackgroundImageFix" result="shape"/>
<feGaussianBlur stdDeviation="52.9955" result="effect1_foregroundBlur_31_130"/>
</filter>
<filter id="filter2_f_31_130" x="-119.736" y="-115.523" width="1061.1" height="1058.11" filterUnits="userSpaceOnUse" color-interpolation-filters="sRGB">
<feFlood flood-opacity="0" result="BackgroundImageFix"/>
<feBlend mode="normal" in="SourceGraphic" in2="BackgroundImageFix" result="shape"/>
<feGaussianBlur stdDeviation="163.261" result="effect1_foregroundBlur_31_130"/>
</filter>
<radialGradient id="paint0_radial_31_130" cx="0" cy="0" r="1" gradientUnits="userSpaceOnUse" gradientTransform="translate(613.771 459.481) rotate(46.5753) scale(449.435 450.528)">
<stop stop-color="#FFD84B"/>
<stop offset="1" stop-color="#FFD84B" stop-opacity="0"/>
</radialGradient>
<radialGradient id="paint1_radial_31_130" cx="0" cy="0" r="1" gradientUnits="userSpaceOnUse" gradientTransform="translate(865.003 601.478) rotate(-89.0696) scale(254.503 256.572)">
<stop stop-color="#9207FF"/>
<stop offset="1" stop-color="#FF9898"/>
</radialGradient>
<radialGradient id="paint2_radial_31_130" cx="0" cy="0" r="1" gradientUnits="userSpaceOnUse" gradientTransform="translate(490.144 455.777) rotate(-64.7484) scale(882.385 887.625)">
<stop stop-color="#5AE9FD"/>
<stop offset="1" stop-color="#5AE9FD" stop-opacity="0"/>
</radialGradient>
</defs>
</svg>
