<svg width="42" height="42" viewBox="0 0 42 42" fill="none" xmlns="http://www.w3.org/2000/svg">
<g clip-path="url(#clip0_16_1003)">
<path d="M41.5 21C41.5 9.67816 32.3218 0.5 21 0.5C9.67816 0.5 0.5 9.67816 0.5 21C0.5 32.3218 9.67816 41.5 21 41.5C32.3218 41.5 41.5 32.3218 41.5 21Z" fill="#121129" stroke="#121129"/>
<path d="M13.65 12.6001H28.35C29.1854 12.6001 29.9866 12.932 30.5774 13.5227C31.1681 14.1135 31.5 14.9147 31.5 15.7501V26.2501C31.5 27.0855 31.1681 27.8867 30.5774 28.4775C29.9866 29.0682 29.1854 29.4001 28.35 29.4001H13.65C12.8146 29.4001 12.0134 29.0682 11.4226 28.4775C10.8319 27.8867 10.5 27.0855 10.5 26.2501V15.7501C10.5 14.9147 10.8319 14.1135 11.4226 13.5227C12.0134 12.932 12.8146 12.6001 13.65 12.6001ZM13.65 14.7001L20.475 19.3936C20.6346 19.4858 20.8157 19.5343 21 19.5343C21.1843 19.5343 21.3654 19.4858 21.525 19.3936L28.35 14.7001H13.65Z" fill="white"/>
</g>
<defs>
<clipPath id="clip0_16_1003">
<rect width="42" height="42" fill="white"/>
</clipPath>
</defs>
</svg>
