<svg width="52" height="50" viewBox="0 0 52 50" fill="none" xmlns="http://www.w3.org/2000/svg">
<path d="M50.1993 26.1994C49.9787 26.1994 49.7605 26.149 49.5588 26.0515L36.1182 19.4904C35.8429 19.3551 35.6093 19.136 35.4454 18.8595C35.2815 18.583 35.1943 18.2608 35.1943 17.9316C35.1943 17.6024 35.2815 17.2803 35.4454 17.0037C35.6093 16.7272 35.8429 16.5082 36.1182 16.3729L49.5588 9.83494C49.9382 9.6517 50.3687 9.63959 50.7563 9.80124C51.1439 9.9629 51.457 10.2852 51.6273 10.6977C51.7956 11.1114 51.8067 11.581 51.658 12.0036C51.5094 12.4262 51.2132 12.7674 50.8344 12.9525L40.5943 17.9343L50.8363 22.9339C51.2151 23.119 51.511 23.4605 51.659 23.8833C51.8069 24.3061 51.7948 24.7756 51.6254 25.1887C51.5035 25.49 51.3037 25.746 51.0504 25.9255C50.7972 26.105 50.5014 26.2002 50.1993 26.1994Z" fill="#67BECE"/>
<path d="M31.8842 50C17.1073 50 4.1888 39.1273 0.475095 23.5573C0.422859 23.3405 0.410385 23.1146 0.438388 22.8925C0.46639 22.6704 0.534319 22.4565 0.638282 22.2631C0.742245 22.0697 0.880199 21.9005 1.04424 21.7653C1.20828 21.6301 1.39518 21.5315 1.59424 21.4752C2.43113 21.2315 3.28678 21.7845 3.50389 22.6972C6.86133 36.7628 18.5334 46.5866 31.8842 46.5866C32.2927 46.5978 32.6809 46.7825 32.9662 47.1014C33.2514 47.4202 33.4111 47.8479 33.4111 48.2933C33.4111 48.7387 33.2514 49.1664 32.9662 49.4853C32.6809 49.8041 32.2927 49.9888 31.8842 50Z" fill="#3F54A3"/>
<path d="M26.49 35.8253C26.0747 35.8253 25.6764 35.6455 25.3827 35.3254C25.089 35.0054 24.924 34.5713 24.9238 34.1186V1.67693C24.9311 1.22946 25.0993 0.803005 25.3922 0.489369C25.6851 0.175734 26.0792 0 26.4898 0C26.9004 0 27.2945 0.175734 27.5874 0.489369C27.8803 0.803005 28.0485 1.22946 28.0558 1.67693V34.1207C28.0552 34.573 27.89 35.0065 27.5965 35.3261C27.3029 35.6457 26.905 35.8253 26.49 35.8253Z" fill="#67BECE"/>
</svg>
