<svg width="121" height="120" viewBox="0 0 121 120" fill="none" xmlns="http://www.w3.org/2000/svg">
<g clip-path="url(#clip0_5_205)">
<mask id="mask0_5_205" style="mask-type:luminance" maskUnits="userSpaceOnUse" x="0" y="0" width="121" height="120">
<path d="M120.188 0H0.1875V120H120.188V0Z" fill="white"/>
</mask>
<g mask="url(#mask0_5_205)">
<path d="M117.925 54.6536L65.5313 2.26326C62.5157 -0.754093 57.622 -0.754093 54.6028 2.26326L43.7232 13.1429L57.5245 26.9443C60.7317 25.8606 64.4096 26.5876 66.9661 29.1442C69.5348 31.7171 70.2568 35.4264 69.1467 38.6438L82.4475 51.9451C85.6654 50.8365 89.3785 51.5537 91.9486 54.1281C95.5406 57.7187 95.5406 63.5382 91.9486 67.1313C88.3556 70.7246 82.5361 70.7246 78.9412 67.1313C76.2394 64.4266 75.5718 60.4586 76.9397 57.13L64.5356 44.7259L64.5342 77.3683C65.4334 77.8129 66.2547 78.4002 66.9661 79.1073C70.5581 82.6979 70.5581 88.5179 66.9661 92.1137C63.3731 95.7053 57.5508 95.7053 53.9629 92.1137C50.3709 88.5179 50.3709 82.6984 53.9629 79.1077C54.8237 78.2466 55.8468 77.5645 56.9728 77.1011V44.1545C55.8451 43.6941 54.8216 43.0117 53.9629 42.1477C51.2414 39.43 50.587 35.4366 51.9816 32.0949L38.3765 18.4885L2.45156 54.4113C-0.567186 57.4314 -0.567186 62.3256 2.45156 65.3434L54.8457 117.735C57.862 120.752 62.7548 120.752 65.775 117.735L117.923 65.5867C120.942 62.568 120.943 57.6709 117.925 54.6536Z" fill="#DE4C36"/>
</g>
</g>
<defs>
<clipPath id="clip0_5_205">
<rect width="120" height="120" fill="white" transform="translate(0.1875)"/>
</clipPath>
</defs>
</svg>
