<svg width="50" height="50" viewBox="0 0 50 50" fill="none" xmlns="http://www.w3.org/2000/svg">
<path fill-rule="evenodd" clip-rule="evenodd" d="M25 0C11.1875 0 0 11.4705 0 25.6323C0 36.9746 7.15625 46.5546 17.0938 49.951C18.3438 50.1752 18.8125 49.4063 18.8125 48.7335C18.8125 48.1246 18.7813 46.1062 18.7813 43.9594C12.5 45.145 10.875 42.3893 10.375 40.9476C10.0938 40.2106 8.875 37.9358 7.8125 37.3271C6.9375 36.8464 5.6875 35.6609 7.78125 35.6289C9.75 35.5969 11.1562 37.4872 11.625 38.2562C13.875 42.133 17.4687 41.0436 18.9063 40.3709C19.125 38.7048 19.7813 37.5833 20.5 36.9425C14.9375 36.3017 9.125 34.091 9.125 24.2866C9.125 21.4992 10.0937 19.1923 11.6875 17.398C11.4375 16.7571 10.5625 14.1298 11.9375 10.6054C11.9375 10.6054 14.0312 9.93252 18.8125 13.2327C20.8125 12.6559 22.9375 12.3676 25.0625 12.3676C27.1875 12.3676 29.3125 12.6559 31.3125 13.2327C36.0937 9.90048 38.1875 10.6054 38.1875 10.6054C39.5625 14.1298 38.6875 16.7571 38.4375 17.398C40.0313 19.1923 41 21.4671 41 24.2866C41 34.1231 35.1563 36.3017 29.5938 36.9425C30.5 37.7436 31.2813 39.2815 31.2813 41.6844C31.2813 45.1129 31.25 47.8683 31.25 48.7335C31.25 49.4063 31.7187 50.2074 32.9687 49.951C37.9317 48.233 42.2442 44.9626 45.2993 40.6002C48.3545 36.2378 49.9985 31.003 50 25.6323C50 11.4705 38.8125 0 25 0Z" fill="#121129"/>
</svg>
