<svg width="52" height="50" viewBox="0 0 52 50" fill="none" xmlns="http://www.w3.org/2000/svg">
<path fill-rule="evenodd" clip-rule="evenodd" d="M26.0928 0C11.9107 0 0.423828 11.4705 0.423828 25.6323C0.423828 36.9746 7.77158 46.5546 17.9751 49.951C19.2586 50.1752 19.7398 49.4063 19.7398 48.7335C19.7398 48.1247 19.7078 46.1062 19.7078 43.9594C13.2583 45.145 11.5898 42.3893 11.0765 40.9476C10.7877 40.2106 9.53633 37.9358 8.44539 37.3271C7.54698 36.8464 6.26353 35.6609 8.41331 35.6289C10.4347 35.5969 11.8786 37.4872 12.3599 38.2562C14.6701 42.133 18.36 41.0436 19.8361 40.3709C20.0606 38.7048 20.7345 37.5833 21.4724 36.9425C15.7611 36.3017 9.79302 34.091 9.79302 24.2866C9.79302 21.4992 10.7877 19.1923 12.4241 17.398C12.1674 16.7571 11.269 14.1298 12.6808 10.6054C12.6808 10.6054 14.8306 9.93252 19.7398 13.2327C21.7933 12.6559 23.9751 12.3676 26.157 12.3676C28.3389 12.3676 30.5207 12.6559 32.5743 13.2327C37.4834 9.90048 39.6332 10.6054 39.6332 10.6054C41.045 14.1298 40.1466 16.7571 39.8899 17.398C41.5264 19.1923 42.521 21.4671 42.521 24.2866C42.521 34.1231 36.521 36.3017 30.8096 36.9425C31.74 37.7436 32.5423 39.2815 32.5423 41.6844C32.5423 45.1129 32.5101 47.8683 32.5101 48.7335C32.5101 49.4063 32.9913 50.2074 34.2748 49.951C39.3706 48.233 43.7985 44.9626 46.9354 40.6002C50.0723 36.2378 51.7603 31.003 51.7619 25.6323C51.7619 11.4705 40.275 0 26.0928 0Z" fill="white"/>
</svg>
