<svg width="121" height="120" viewBox="0 0 121 120" fill="none" xmlns="http://www.w3.org/2000/svg">
<g clip-path="url(#clip0_5_211)">
<path fill-rule="evenodd" clip-rule="evenodd" d="M60.1875 0C27.0375 0 0.1875 26.85 0.1875 60C0.1875 86.55 17.3625 108.975 41.2125 116.925C44.2125 117.45 45.3375 115.65 45.3375 114.075C45.3375 112.65 45.2625 107.925 45.2625 102.9C30.1875 105.675 26.2875 99.225 25.0875 95.85C24.4125 94.125 21.4875 88.8 18.9375 87.375C16.8375 86.25 13.8375 83.475 18.8625 83.4C23.5875 83.325 26.9625 87.75 28.0875 89.55C33.4875 98.625 42.1125 96.075 45.5625 94.5C46.0875 90.6 47.6625 87.975 49.3875 86.475C36.0375 84.975 22.0875 79.8 22.0875 56.85C22.0875 50.325 24.4125 44.925 28.2375 40.725C27.6375 39.225 25.5375 33.075 28.8375 24.825C28.8375 24.825 33.8625 23.25 45.3375 30.975C50.1375 29.625 55.2375 28.95 60.3375 28.95C65.4375 28.95 70.5375 29.625 75.3375 30.975C86.8125 23.175 91.8375 24.825 91.8375 24.825C95.1375 33.075 93.0375 39.225 92.4375 40.725C96.2625 44.925 98.5875 50.25 98.5875 56.85C98.5875 79.875 84.5625 84.975 71.2125 86.475C73.3875 88.35 75.2625 91.95 75.2625 97.575C75.2625 105.6 75.1875 112.05 75.1875 114.075C75.1875 115.65 76.3125 117.525 79.3125 116.925C91.2235 112.904 101.573 105.248 108.906 95.0369C116.238 84.8253 120.184 72.5714 120.188 60C120.188 26.85 93.3375 0 60.1875 0Z" fill="black"/>
</g>
<defs>
<clipPath id="clip0_5_211">
<rect width="120" height="120" fill="white" transform="translate(0.1875)"/>
</clipPath>
</defs>
</svg>
