<svg width="120" height="120" viewBox="0 0 120 120" fill="none" xmlns="http://www.w3.org/2000/svg">
<path d="M67.3652 119.745C65.8015 119.471 64.1815 118.729 63.2627 117.908C62.639 117.253 62.2831 116.389 62.2652 115.485C62.2652 114.566 62.734 113.276 63.4765 111.99C63.9265 111.266 64.279 110.486 64.5302 109.665C64.6877 109.099 65.0177 108.18 65.2727 107.595L65.7227 106.523L65.839 99.3562C65.899 95.3924 66.0152 91.7212 66.1127 91.1512C66.3677 89.5087 66.7952 87.9074 67.3615 86.3474L67.7927 85.3124L67.1665 84.9412C66.6002 84.5887 66.1315 84.1012 64.2752 81.8924C61.9915 79.1962 58.984 77.7112 54.724 77.2049C53.3365 77.0699 51.9302 76.9687 50.524 76.9124C44.2727 76.6199 40.699 75.3112 37.4777 72.1462C35.074 69.7837 33.8252 67.0274 33.319 62.9662C32.6365 57.4762 31.8752 54.6637 30.469 52.3799C30.1224 51.8159 29.7231 51.286 29.2765 50.7974L28.7102 50.2312L27.4615 51.0337C26.779 51.4837 25.819 52.0499 25.3502 52.3049C23.7865 53.1637 22.3015 54.1199 20.8765 55.1549C17.3815 57.6937 13.5715 60.8774 11.4827 62.9662C10.5452 63.9037 10.0577 64.3124 9.84022 64.2749C8.41522 64.0612 9.50647 57.8887 11.8315 53.2387C14.8015 47.2424 19.8002 41.7149 25.5827 37.9837C30.3302 34.9162 38.0065 30.6974 41.5577 29.2124C47.8652 26.5762 56.029 23.7224 61.6165 22.1999C62.7902 21.8662 63.5102 21.5737 63.9977 21.2437C65.0927 20.4824 66.1652 20.1112 67.3952 20.0924C68.4302 20.0737 68.5277 20.0549 69.5252 19.3874C70.699 18.6262 71.0477 18.5849 72.2215 18.9974L72.9827 19.2712L73.9202 18.6262L74.8577 17.9999L76.204 18.0187C77.239 18.0374 77.7077 17.9999 78.1577 17.8049C78.724 17.5499 78.7427 17.5124 78.9002 16.5749C79.2527 14.5424 79.2902 13.5262 79.0765 12.2962C78.8027 10.6762 78.7652 4.38744 79.039 3.15369C79.3315 1.82619 79.5265 1.55244 80.524 1.06494C82.009 0.341191 83.1227 0.127441 85.6802 0.127441C88.804 0.127441 90.3865 0.558692 91.5602 1.69119C92.614 2.70744 92.7902 5.08869 92.2427 10.6762C91.909 13.8974 91.8715 14.7974 91.969 16.9049C92.0065 18.2512 92.104 19.5224 92.1452 19.6987C92.224 20.0324 92.3027 20.0512 93.4352 20.0699C94.549 20.0887 94.744 20.1487 95.7977 20.6962C96.814 21.2249 97.5752 21.8699 97.7327 22.3387C97.7515 22.4362 97.9277 22.4362 98.239 22.3387C98.8427 22.1624 99.3715 22.3574 99.8027 22.8862C100.058 23.2199 100.211 23.2762 100.8 23.2762C101.603 23.2762 101.895 23.4712 102.559 24.4499C102.869 24.8892 103.295 25.2343 103.789 25.4474C104.884 25.9949 106.369 27.5174 106.935 28.7287C107.813 30.5249 107.989 32.6137 107.441 34.4887C107.246 35.1937 107.246 35.2124 107.655 35.8949C108.514 37.3612 108.829 39.1574 108.476 40.6799L108.281 41.5799L108.866 42.1649C111.776 45.0749 111.345 49.8224 107.794 54.0599C107.397 54.5439 107.062 55.0755 106.796 55.6424C106.114 57.4574 105.33 58.7287 104.318 59.7824L103.283 60.8362H102.229C101.175 60.8362 99.6902 60.4837 98.7902 60.0149C98.419 59.8199 98.4002 59.8199 98.479 60.0524C98.7152 60.9112 99.3002 64.4062 99.4952 66.3412C99.8065 69.3112 99.709 73.6274 99.3002 75.4837C99.0015 76.8585 98.5011 78.1815 97.8152 79.4099C97.4252 80.0362 97.4065 80.1712 97.4815 80.9324C97.5977 82.0049 97.3465 83.8049 96.9152 84.9937C96.3865 86.3812 96.1915 87.0262 96.0752 87.7274C95.9777 88.3312 95.9777 88.3312 96.409 88.3312C96.9752 88.3312 97.2865 88.6649 97.2865 89.3287C97.2865 89.6212 97.0315 91.2037 96.7202 92.8237C95.8615 97.3762 95.8015 97.8824 95.8015 102.296C95.7827 106.849 95.7827 106.808 96.8177 107.49L99.1427 108.994C101.143 110.321 103.285 111.422 105.529 112.275C108.791 113.565 109.241 113.895 109.241 114.99C109.241 115.478 109.144 115.654 108.735 116.044C107.486 117.255 105.023 117.529 100.061 117C97.4834 116.758 94.8958 116.635 92.3065 116.629C85.4702 116.531 84.4727 116.295 83.5765 114.596C83.0702 113.621 83.1677 112.35 83.869 110.261C84.1802 109.343 84.454 108.405 84.6902 107.449C85.159 105.184 84.8477 102.488 83.7527 99.4424L82.8152 96.8437C81.8965 94.2074 81.3902 89.3812 81.9377 88.2899C82.0352 88.0762 82.2115 88.0349 82.6802 88.0537L83.2652 88.1137L83.7527 87.0974C84.124 86.2949 84.5327 85.7699 85.6465 84.6562L87.0715 83.2312L86.9927 82.3124C86.9327 81.4349 85.7815 77.1749 85.624 77.1937C85.564 77.1937 85.2527 77.6249 84.9002 78.1687C84.0415 79.4587 82.1477 81.4499 81.0715 82.1737C80.6027 82.4849 80.2127 82.8562 80.2127 82.9762C80.194 83.5049 79.744 84.5399 79.1965 85.2599C78.6677 85.9649 78.6302 86.0812 78.709 86.7037C78.844 87.6224 78.5515 90.5699 78.2027 92.1149C77.8866 93.2621 77.4543 94.3741 76.9127 95.4337C75.5665 98.2274 74.5502 100.725 74.2952 101.88C74.111 102.992 73.9933 104.114 73.9427 105.24C73.8827 106.568 73.7477 107.858 73.6502 108.131C73.5152 108.503 73.5152 108.795 73.6315 109.361C73.729 109.77 73.789 110.689 73.7665 111.413C73.7477 112.41 73.8265 113.055 74.119 114.225C74.6252 116.216 74.7227 117.469 74.4902 118.211C74.3327 118.68 74.179 118.856 73.6502 119.111C72.4765 119.715 69.1577 120.049 67.3615 119.738L67.3652 119.745ZM72.109 118.144C72.7915 117.949 73.3802 117.364 73.3802 116.835C73.3802 116.599 73.1852 115.916 72.949 115.313C72.4802 114.161 71.6777 111.113 71.6777 110.606C71.6777 110.351 71.6965 110.333 72.0865 110.546L72.5177 110.783V110.235C72.4551 109.73 72.3434 109.233 72.184 108.75C71.8127 107.636 71.7752 107.618 69.409 107.479L67.8077 107.4L67.2227 107.966C66.901 108.297 66.6191 108.665 66.3827 109.061C66.1277 109.568 66.0302 110.333 66.1877 110.505C66.2252 110.565 66.619 110.505 67.0465 110.408C67.3002 110.332 67.5621 110.287 67.8265 110.273C67.8265 110.291 67.3952 110.644 66.8515 111.015C64.5077 112.774 63.6865 113.846 63.6865 115.215C63.6865 116.64 65.0327 117.754 67.144 118.088C68.5877 118.301 71.4002 118.361 72.1052 118.148L72.109 118.144ZM103.886 115.819C104.471 115.114 104.393 114.394 103.65 113.573C103.219 113.141 102.731 112.77 102.184 112.478C101.636 112.185 101.089 111.851 100.541 111.503C99.5512 110.861 98.534 110.261 97.4927 109.706C96.5927 109.219 95.7152 108.709 94.8565 108.165L94.504 107.891V102.521C94.504 97.2299 94.4852 97.1512 94.2115 97.2299C92.8427 97.6012 90.5777 97.7774 87.709 97.7174L84.604 97.6799L85.054 98.7749C85.894 100.845 86.3252 103.62 86.3252 106.804C86.3252 107.996 86.2465 108.424 85.954 109.264C85.7965 109.673 85.6615 110.085 85.5227 110.494C85.4627 110.67 85.6802 110.805 86.479 111.041C87.064 111.218 87.9227 111.394 88.414 111.45L89.314 111.548L89.2165 112.448C89.119 113.464 89.2352 114.536 89.4902 114.87C89.6477 115.065 90.2327 115.144 92.9477 115.26C94.999 115.358 97.2265 115.571 98.9815 115.826C100.504 116.063 102.146 116.258 102.634 116.258C103.455 116.276 103.534 116.239 103.883 115.826L103.886 115.819ZM72.619 106.68C72.6977 106.62 72.814 105.566 72.8552 104.318C73.0127 100.823 73.1477 100.313 74.9065 96.3674C76.3502 93.1462 77.1152 90.1387 77.0552 88.0087L77.0177 86.7374L76.4702 87.2662C75.3377 88.3987 76.1177 86.6212 77.4677 85.0387C78.484 83.8274 78.8365 83.1637 78.9902 82.0912C79.069 81.6599 79.2265 81.4462 79.8902 80.9399C82.3737 79.0638 84.2873 76.5348 85.4177 73.6349C85.6915 72.9299 86.3927 70.5299 86.9815 68.3024C88.0765 64.1812 88.6615 62.4037 89.1902 61.6424C89.3852 61.3499 89.464 61.2899 89.4265 61.4849C89.1432 62.5323 88.9216 63.5954 88.7627 64.6687C88.6052 65.6249 88.3127 67.4999 88.1177 68.8087C87.7465 71.4862 87.3565 73.2037 86.8277 74.5312L86.4752 75.4312L87.4127 77.8537C88.3877 80.3324 88.8377 82.1324 88.9165 83.8687L88.9765 84.8437L88.2152 85.0012C87.2105 85.179 86.3139 85.7395 85.714 86.5649C85.0502 87.5212 84.679 88.3049 84.8552 88.4774C84.934 88.5562 85.8902 88.7324 86.9852 88.8674C88.684 89.0624 89.329 89.0624 91.5752 88.9274C92.5502 88.8899 93.5102 88.7924 94.4665 88.6537C94.6802 88.5749 94.8977 88.1474 95.2465 87.0337C96.049 84.4762 96.2027 83.5762 96.1052 81.7799L96.0265 80.1974L96.4352 79.6687C97.3915 78.4574 98.134 76.2712 98.4452 73.7099C98.8165 70.5862 98.134 64.0424 96.8627 58.4174C96.259 55.7399 96.004 54.1387 96.004 52.9687V51.9337L95.0477 52.0312C91.609 52.4024 87.4502 52.3049 84.9115 51.7762C83.524 51.5024 80.029 50.4674 79.2677 50.1337L78.664 49.8599L78.5852 50.5424C78.5252 50.9137 78.469 51.2849 78.3902 51.6749C78.274 52.0837 78.3115 52.1812 79.0352 52.8862C79.9352 53.8049 80.209 54.2737 80.209 54.8962C80.209 55.2862 79.9952 55.6012 78.9002 56.7337C78.1151 57.5714 77.2441 58.3243 76.3015 58.9799L75.0302 59.8387L74.4827 61.7324C72.529 68.6662 72.1577 74.9737 73.4477 79.4849L73.759 80.6174L73.1327 81.3974C70.789 84.3449 69.4015 86.5912 69.1877 87.8437C69.0628 88.4604 68.9189 89.0732 68.7565 89.6812C68.2502 91.6162 67.8565 94.4474 67.684 97.5149C67.5638 100.083 67.395 102.648 67.1777 105.21L67.0802 105.971L68.0552 106.264C68.6027 106.44 69.424 106.635 69.8927 106.714C70.7702 106.849 72.394 106.811 72.6452 106.676L72.619 106.68ZM91.5827 95.9362C93.1052 95.8387 94.4927 95.6024 94.7665 95.3699C94.8827 95.2912 95.0215 94.8824 95.059 94.4699L95.1565 93.7274L93.9452 94.0012C92.989 94.1962 92.0327 94.3124 91.0727 94.3912C88.7665 94.4887 86.4452 94.4287 84.1577 94.1962C83.3965 94.0799 83.3965 94.0799 83.629 95.0737C83.824 95.8162 83.8652 95.8537 85.8565 95.9924C87.184 96.1087 89.0402 96.0899 91.579 95.9324L91.5827 95.9362ZM90.3115 92.5387C92.3027 92.3624 94.7852 91.9349 95.2727 91.6799C95.4302 91.6012 95.5652 91.3087 95.6252 90.9749L95.8015 89.9399L95.899 89.4524L95.4115 89.5499C93.244 89.9999 91.6015 90.1349 88.3202 90.1349C85.1177 90.1349 84.7465 90.1162 83.9065 89.8237C83.5836 89.6876 83.2399 89.6077 82.8902 89.5874C82.7552 89.6662 82.7327 90.7799 82.8527 91.5599C82.9315 92.0287 83.0102 92.1074 83.479 92.2424C84.964 92.6512 87.4652 92.7487 90.3152 92.5162L90.3115 92.5387ZM54.064 74.9212C59.0627 73.4774 65.6065 69.2362 70.9577 63.9262C72.6977 62.1862 72.9115 61.9537 73.144 61.1737L73.4552 60.1762C73.4927 60.0974 73.1815 59.9624 72.7727 59.8649C71.7002 59.6099 70.879 58.9874 70.879 58.4212C70.879 58.0874 70.684 57.7574 70.1177 57.1499C69.199 56.1149 68.9665 55.6649 68.869 54.6712L68.7902 53.8687L67.6952 53.0887C67.069 52.6387 64.8827 51.4274 62.5577 50.2574C60.7875 49.3938 59.0547 48.4554 57.364 47.4449C55.4102 46.1362 54.1015 44.5724 53.359 42.7199C53.224 42.3487 53.0477 42.0374 52.9877 42.0374C52.8302 42.0374 48.4352 46.2749 46.5602 48.2662C41.9327 53.1487 38.749 57.3862 36.7352 61.3124C36.229 62.2874 35.6815 63.4424 35.524 63.8699L35.2315 64.6499L35.584 65.9587C35.7977 66.6637 36.2477 67.8149 36.6002 68.4974C37.8302 70.9199 39.2965 72.3824 41.719 73.5749C44.3177 74.8649 46.6202 75.3149 50.4677 75.2549C52.5377 75.2362 53.1452 75.1762 54.0602 74.9024L54.064 74.9212ZM14.6102 57.7912C17.8915 54.8812 22.4215 51.6974 27.9715 48.3974C31.6052 46.2299 45.649 39.1987 52.114 36.3262C53.2877 35.7974 54.3415 35.3099 54.4577 35.2537C54.574 35.1749 54.9077 34.3349 55.219 33.3974C56.5877 29.0624 57.2702 28.2037 59.749 27.6374C60.0602 27.5587 60.139 27.4612 60.139 27.1499C60.139 26.5837 60.529 25.2749 60.8627 24.6899C61.1177 24.2399 61.1177 24.2212 60.9002 24.2812C60.7652 24.3187 59.944 24.5549 59.0852 24.8099C47.1715 28.2487 36.7615 32.8162 27.7765 38.5199C18.1877 44.6137 12.6602 51.9187 11.059 60.6674L10.9427 61.3124L12.1165 60.1612C12.7427 59.5162 13.8752 58.4624 14.6177 57.8174L14.6102 57.7912ZM102.99 59.4524C103.946 58.9649 105.431 56.7187 105.979 54.9412C106.136 54.3149 106.448 53.7299 106.898 53.2424C108.341 51.6412 109.534 48.7312 109.553 46.7399C109.553 43.6349 107.794 42.4424 105.236 43.7699C104.903 43.9274 104.633 44.0437 104.591 44.0062C104.456 43.8712 105.176 43.1662 106.058 42.6187C107.209 41.8574 107.426 41.4074 107.426 39.7874C107.443 38.478 107.054 37.1954 106.313 36.1162C105.96 35.5874 105.825 35.2387 105.881 35.0212L106.234 33.7124C106.721 31.9724 106.545 29.9812 105.784 28.7137C104.651 26.8012 103.264 25.8637 101.329 25.7062L100.196 25.6274L100.86 26.3699C102.833 28.4999 103.789 31.1737 103.399 33.4612C103.204 34.6349 103.028 34.8674 101.895 35.3174L101.231 35.5912L101.31 36.4912C101.445 37.9574 101.194 39.0299 100.256 41.0024C99.7877 41.9999 99.4352 42.8962 99.4765 42.9937C99.5927 43.3274 100.883 43.9499 101.899 44.2049L102.896 44.4412L102.27 44.6549C101.449 44.9099 101.273 45.2812 101.273 46.6274C101.273 47.8574 101.449 48.3674 102.345 49.7137C102.754 50.2987 103.028 50.9062 103.069 51.2549C103.148 51.8024 103.129 51.8399 102.679 51.9974C102.169 52.1406 101.644 52.2261 101.115 52.2524C99.2777 52.3687 99.1427 52.4287 98.3215 53.2087C97.579 53.9137 97.5602 53.9512 97.5602 54.7312C97.5602 55.8037 97.969 57.9749 98.224 58.2674C98.5577 58.6199 100.41 59.5387 101.134 59.6737C101.758 59.8304 102.418 59.7544 102.99 59.4599V59.4524ZM75.9377 57.9899C77.1302 57.0524 78.0677 56.1149 78.5927 55.3124C78.9265 54.8249 78.9452 54.7274 78.7877 54.3149C78.514 53.6887 76.7177 52.0687 75.7202 51.5812C75.0556 51.2834 74.3525 51.0801 73.6315 50.9774L72.4015 50.8199L71.6402 49.8637C70.0577 47.9099 69.1802 46.3874 67.9277 43.4362C66.8327 40.9349 65.8765 39.4724 64.354 38.0249C63.7277 37.4399 63.2815 36.9524 63.319 36.9524C63.3977 36.9524 64.1402 37.3237 64.999 37.7737C66.424 38.5349 66.6002 38.5949 67.2452 38.4974C69.5702 38.2237 71.6215 35.5499 72.364 31.7999C72.5777 30.7462 73.009 29.6699 73.459 29.0249C73.4777 29.0062 74.3777 29.5912 75.4315 30.3524C78.109 32.2462 78.694 32.5387 80.2165 32.5987C81.214 32.6362 81.7802 32.5612 83.5765 32.1299C87.4052 31.1924 91.5452 30.8212 94.0652 31.1549C95.4902 31.3499 97.5415 31.9762 99.064 32.6962C100.568 33.4012 100.86 33.4387 101.348 33.0074C101.756 32.6549 101.756 32.5987 101.756 31.2899C101.738 29.3549 101.033 27.2662 99.9602 26.0174C99.4127 25.3724 97.8715 24.3187 96.3452 23.5162C95.8027 23.2284 95.2627 22.9359 94.7252 22.6387C94.0015 22.2074 93.184 22.2674 90.9565 22.8524C88.3765 23.5162 87.694 23.5162 84.7465 22.7549C82.2452 22.1287 82.0915 22.1099 79.6277 22.4999C78.319 22.6949 75.0377 22.5787 73.9427 22.2862C73.3952 22.1287 72.8477 21.9749 72.3227 21.7799C71.3665 21.4087 69.7052 21.3487 68.2015 21.6224C65.2127 22.1512 62.9477 23.7712 62.1265 25.9762C61.6952 27.0899 61.7552 27.6187 62.3215 27.9674C63.2215 28.5337 64.4102 30.0787 64.4102 30.6824C64.4102 30.7199 64.1177 30.4687 63.784 30.1162C62.944 29.2387 62.1827 28.8449 61.2827 28.8449C60.7004 28.8611 60.1342 29.0396 59.6479 29.3602C59.1615 29.6809 58.7745 30.131 58.5302 30.6599C58.2674 31.3499 58.0458 32.0549 57.8665 32.7712C57.319 34.7624 56.8315 35.8199 55.7965 37.2262C54.8777 38.4974 54.7427 39.0637 55.0727 40.4887C55.894 44.0812 57.319 45.5287 63.274 48.9074C66.3977 50.6849 67.999 51.6824 69.1727 52.5599C70.0727 53.2237 70.0915 53.2649 70.0127 53.7712C69.8365 54.9449 70.579 56.2124 72.0452 57.2474C72.4165 57.5024 72.649 57.7762 72.649 57.9712C72.649 58.3237 73.6465 58.8112 74.3665 58.8112C74.7752 58.8112 75.0902 58.6349 75.9302 57.9899H75.9377ZM100.02 51.4049C102.285 51.4837 102.401 51.3074 101.194 49.9012C99.9227 48.4349 99.574 47.2462 100.043 45.9374L100.238 45.4312L99.4352 45.0412C99.1615 44.9062 98.8877 44.7674 98.614 44.6699C98.479 45.1987 98.3402 45.7049 98.224 46.2337C97.9315 47.4262 97.579 50.5124 97.5602 51.8212C97.5602 51.9374 97.7552 51.8999 98.089 51.6862C98.5577 51.4124 98.794 51.3749 100.024 51.4124L100.02 51.4049ZM92.4227 51.2887C93.7915 51.2099 95.1977 51.1124 95.569 51.0524L96.2515 50.9549L96.3302 48.7087C96.4465 45.5062 96.9152 43.6124 98.3027 40.5824C99.2777 38.4337 99.709 36.5587 99.4952 35.1524C99.4165 34.5487 99.379 34.5074 98.5577 34.1549C97.0539 33.5578 95.4879 33.1314 93.889 32.8837C92.3477 32.6699 87.814 32.7862 86.1152 33.1199C85.4102 33.2362 84.124 33.5099 83.2652 33.7237C81.1352 34.2112 80.0027 34.1549 78.3827 33.4499C76.7815 32.7449 75.7652 32.1037 74.809 31.2037C74.0477 30.4987 73.969 30.4612 73.774 30.6974C73.6165 30.8737 73.5377 31.4024 73.4815 32.5349C73.4215 34.2749 73.1477 35.1899 72.3865 36.4199C72.2173 36.673 72.0729 36.9417 71.9552 37.2224C71.9552 37.2824 72.5402 37.9649 73.264 38.7074C75.7652 41.3062 76.9952 41.9699 78.9677 41.8312C79.6127 41.7712 80.0627 41.7937 80.0627 41.8687C80.0627 42.0262 78.7915 43.0199 78.2665 43.2937C78.0115 43.4287 77.9552 43.5674 77.9927 43.8599L78.304 45.9112C78.4802 47.0849 78.6152 47.6287 78.7915 47.7862C79.2602 48.1762 81.6827 49.4287 83.2052 50.0512C85.1965 50.8537 86.2915 51.1462 87.814 51.2812C89.689 51.4387 89.7265 51.4387 92.4227 51.2812V51.2887ZM76.2715 49.1399C76.309 49.0799 76.174 47.9474 75.919 46.6387C75.6077 44.8612 75.4315 44.2162 75.2365 44.0399C75.1015 43.9237 74.3777 43.4137 73.654 42.8887C72.703 42.2049 71.802 41.4542 70.9577 40.6424L69.6115 39.3149L68.8877 39.6862L68.1265 40.0949C68.1905 40.4 68.2952 40.6951 68.4377 40.9724C68.6515 41.4412 69.0827 42.5924 69.394 43.5299C70.2152 45.9712 70.8602 47.1449 72.4802 49.2712L73.084 50.0737L74.2352 50.2499C74.8802 50.3474 75.5252 50.4862 75.7015 50.5424C75.9752 50.6587 76.0127 50.6024 76.0915 49.9762C76.129 49.7024 76.189 49.4099 76.2677 49.1362L76.2715 49.1399ZM101.018 24.8437C102.015 24.7462 102.191 24.6074 101.76 24.1612C101.486 23.8874 100.86 23.8687 100.354 24.1012C100.02 24.2587 99.9452 24.2174 99.4165 23.6512C98.869 23.0474 98.8315 23.0249 98.1452 23.1037C97.519 23.1824 97.4215 23.1637 97.3427 22.9087C97.0988 22.4898 96.7957 22.1083 96.4427 21.7762C95.9992 21.2721 95.4446 20.878 94.8227 20.6249C93.6115 20.1562 92.929 20.2162 91.774 20.8612C88.4327 22.6762 88.5715 22.6574 85.3465 21.8362C82.339 21.0749 80.0927 20.2949 79.369 19.8037C78.7652 19.3949 77.4752 18.9449 76.399 18.8062C75.5965 18.6899 75.0902 18.8662 74.329 19.4887L73.9202 19.8224L74.2915 20.4674C74.7977 21.3674 74.7415 21.4237 73.9802 20.7599C73.159 20.0774 72.184 19.6087 71.5577 19.5862C71.1077 19.5862 69.7802 20.1712 69.6227 20.4262C69.5627 20.5049 69.9752 20.6024 70.5227 20.6399C71.089 20.6999 71.869 20.8949 72.3977 21.1087C73.7665 21.6937 74.4677 21.8887 75.7165 22.0087C77.0852 22.1437 79.564 21.9899 79.8565 21.7537C80.014 21.6187 80.4415 21.5962 81.3415 21.6749C82.534 21.7537 83.0215 21.8699 85.8527 22.6312C87.4952 23.0812 88.6465 23.0399 90.6002 22.5149C91.5002 22.2599 92.6327 22.0087 93.1015 21.9487C93.904 21.8699 94.0577 21.9112 95.3102 22.4774C97.3015 23.3774 98.359 23.9437 98.944 24.4687C99.529 24.9749 99.6077 24.9749 101.014 24.8587L101.018 24.8437ZM89.884 21.4274L91.0765 20.8012L91.039 19.5899C91.0202 18.7499 90.979 17.9287 90.9415 17.1112L90.844 15.8624L89.6515 16.7812C88.9465 17.3287 88.264 17.7374 87.9715 17.7974C87.1127 17.9549 82.8752 17.7974 82.4815 17.5837C81.9569 17.1962 81.4664 16.7646 81.0152 16.2937L79.9202 15.1799L79.9015 15.8437C79.9015 16.1962 79.864 16.7999 79.7852 17.1712C79.6877 17.8762 79.6877 17.8949 80.449 18.8512C80.8577 19.3799 81.1915 19.8487 81.1915 19.9049C81.1915 20.2762 86.8352 22.0349 88.1065 22.0537C88.5152 22.0537 89.0252 21.8774 89.884 21.4274ZM87.619 16.9912C89.0252 16.7174 89.7077 15.7012 90.2365 13.1249C90.784 10.3499 91.0577 5.99619 90.8027 4.13994C90.5665 2.45994 88.6915 1.71744 85.1177 1.83369C82.8902 1.91244 81.9715 2.12619 81.2102 2.77119C80.7415 3.16119 80.7415 3.20244 80.5277 5.05494C80.1377 8.60994 80.7227 13.6687 81.739 15.5624C82.2265 16.4812 82.6577 16.8112 83.554 16.9687C84.5702 17.1449 86.7377 17.1449 87.6152 16.9874L87.619 16.9912Z" fill="#008000"/>
</svg>
