<svg width="121" height="120" viewBox="0 0 121 120" fill="none" xmlns="http://www.w3.org/2000/svg">
<path d="M22.3199 102.004L13.8936 7.5H106.481L98.0436 101.989L60.1311 112.5L22.3199 102.004Z" fill="#E44F26"/>
<path d="M60.1875 104.467L90.825 95.9738L98.0325 15.2288H60.1875V104.467Z" fill="#F1662A"/>
<path d="M60.1875 50.2764H44.85L43.7925 38.4076H60.1875V26.8164H31.125L31.4025 29.9289L34.2488 61.8676H60.1875V50.2764ZM60.1875 80.3776L60.135 80.3926L47.2275 76.9089L46.4025 67.6651H34.7662L36.39 85.8601L60.135 92.4526L60.1875 92.4376V80.3776Z" fill="#EBEBEB"/>
<path d="M60.146 50.2764V61.8676H74.4185L73.076 76.9014L60.146 80.3889V92.4489L83.9098 85.8601L84.0823 83.9026L86.8048 53.3889L87.0898 50.2764H60.146ZM60.146 26.8164V38.4076H88.1435L88.376 35.8051L88.9048 29.9289L89.1823 26.8164H60.146Z" fill="white"/>
</svg>
