<svg width="52" height="50" viewBox="0 0 52 50" fill="none" xmlns="http://www.w3.org/2000/svg">
<path d="M26.0928 0C11.9161 0 0.423828 11.1927 0.423828 25C0.423828 38.8073 11.9161 50 26.0928 50C40.2696 50 51.7619 38.8073 51.7619 25C51.7619 11.1927 40.2696 0 26.0928 0ZM19.8093 35.362H14.6113V19.0703H19.8093V35.362ZM17.1782 17.0703C15.5365 17.0703 14.4749 15.9375 14.4749 14.5364C14.4749 13.1068 15.5686 12.0078 17.245 12.0078C18.9216 12.0078 19.9483 13.1068 19.9804 14.5364C19.9804 15.9375 18.9216 17.0703 17.1782 17.0703ZM38.7937 35.362H33.5957V26.3334C33.5957 24.2318 32.8417 22.8047 30.9619 22.8047C29.5261 22.8047 28.6731 23.7709 28.2961 24.7005C28.1571 25.0313 28.1223 25.5 28.1223 25.9662V35.3594H22.9216V24.2656C22.9216 22.2318 22.8548 20.5313 22.7853 19.0677H27.3014L27.5394 21.3308H27.6437C28.3282 20.2683 30.0047 18.7005 32.8096 18.7005C36.2294 18.7005 38.7937 20.9323 38.7937 25.7292V35.362Z" fill="white"/>
</svg>
