<svg width="50" height="50" viewBox="0 0 50 50" fill="none" xmlns="http://www.w3.org/2000/svg">
<path d="M25 0C11.1927 0 0 11.1927 0 25C0 38.8073 11.1927 50 25 50C38.8073 50 50 38.8073 50 25C50 11.1927 38.8073 0 25 0ZM18.8802 35.362H13.8177V19.0703H18.8802V35.362ZM16.3177 17.0703C14.7188 17.0703 13.6849 15.9375 13.6849 14.5364C13.6849 13.1068 14.75 12.0078 16.3828 12.0078C18.0156 12.0078 19.0156 13.1068 19.0469 14.5364C19.0469 15.9375 18.0156 17.0703 16.3177 17.0703ZM37.3698 35.362H32.3073V26.3334C32.3073 24.2318 31.5729 22.8047 29.7422 22.8047C28.3437 22.8047 27.513 23.7709 27.1458 24.7005C27.0104 25.0313 26.9766 25.5 26.9766 25.9662V35.3594H21.9115V24.2656C21.9115 22.2318 21.8463 20.5313 21.7786 19.0677H26.1771L26.4088 21.3308H26.5104C27.1771 20.2683 28.8099 18.7005 31.5417 18.7005C34.8724 18.7005 37.3698 20.9323 37.3698 25.7292V35.362Z" fill="#121129"/>
</svg>
