<svg width="251" height="250" viewBox="0 0 251 250" fill="none" xmlns="http://www.w3.org/2000/svg">
<rect x="27.0002" y="24.8334" width="197" height="197" rx="98.5" fill="#121129" stroke="#3631A7" stroke-width="3"/>
<rect x="0.999756" y="0.5" width="249" height="249" rx="124.5" stroke="#222142"/>
<g clip-path="url(#clip0_16_954)">
<path d="M121.076 94.9553C121.637 94.3393 122.32 93.8473 123.082 93.5106C123.843 93.1739 124.667 93 125.5 93C126.333 93 127.157 93.1739 127.918 93.5106C128.68 93.8473 129.363 94.3393 129.924 94.9553L132.975 98.3053C133.567 98.9556 134.296 99.4673 135.108 99.8039C135.921 100.14 136.798 100.294 137.677 100.253L142.202 100.043C143.034 100.004 143.865 100.139 144.641 100.439C145.418 100.739 146.123 101.198 146.712 101.787C147.301 102.375 147.761 103.08 148.062 103.856C148.363 104.632 148.498 105.463 148.46 106.295L148.248 110.823C148.206 111.702 148.36 112.579 148.696 113.392C149.033 114.204 149.544 114.933 150.195 115.525L153.545 118.576C154.161 119.137 154.653 119.82 154.989 120.582C155.326 121.343 155.5 122.167 155.5 123C155.5 123.833 155.326 124.657 154.989 125.418C154.653 126.18 154.161 126.863 153.545 127.424L150.195 130.475C149.544 131.067 149.033 131.796 148.696 132.608C148.36 133.421 148.206 134.298 148.248 135.177L148.457 139.702C148.496 140.534 148.361 141.365 148.061 142.141C147.761 142.918 147.302 143.623 146.713 144.212C146.125 144.801 145.42 145.261 144.644 145.562C143.868 145.863 143.037 145.998 142.205 145.96L137.677 145.748C136.798 145.706 135.921 145.86 135.108 146.196C134.296 146.533 133.567 147.044 132.975 147.695L129.924 151.045C129.363 151.661 128.68 152.153 127.918 152.489C127.157 152.826 126.333 153 125.5 153C124.667 153 123.843 152.826 123.082 152.489C122.32 152.153 121.637 151.661 121.076 151.045L118.025 147.695C117.433 147.044 116.704 146.533 115.892 146.196C115.079 145.86 114.202 145.706 113.323 145.748L108.798 145.957C107.966 145.996 107.135 145.861 106.359 145.561C105.582 145.261 104.877 144.802 104.288 144.213C103.699 143.625 103.239 142.92 102.938 142.144C102.637 141.368 102.502 140.537 102.54 139.705L102.753 135.177C102.794 134.298 102.64 133.421 102.304 132.608C101.967 131.796 101.456 131.067 100.805 130.475L97.4553 127.424C96.8393 126.863 96.3473 126.18 96.0106 125.418C95.6739 124.657 95.5 123.833 95.5 123C95.5 122.167 95.6739 121.343 96.0106 120.582C96.3473 119.82 96.8393 119.137 97.4553 118.576L100.805 115.525C101.456 114.933 101.967 114.204 102.304 113.392C102.64 112.579 102.794 111.702 102.753 110.823L102.543 106.298C102.504 105.466 102.639 104.635 102.939 103.859C103.239 103.082 103.698 102.377 104.287 101.788C104.875 101.199 105.58 100.739 106.356 100.438C107.132 100.137 107.963 100.002 108.795 100.04L113.323 100.253C114.202 100.294 115.079 100.14 115.892 99.8039C116.704 99.4673 117.433 98.9556 118.025 98.3053L121.076 94.9553Z" fill="white"/>
<path d="M116.527 123L122.509 128.982L134.473 117.018" stroke="#161325" stroke-width="5" stroke-linecap="round" stroke-linejoin="round"/>
</g>
<defs>
<clipPath id="clip0_16_954">
<rect width="60" height="60" fill="white" transform="translate(95.5 93)"/>
</clipPath>
</defs>
</svg>
