<svg width="113" height="102" viewBox="0 0 113 102" fill="none" xmlns="http://www.w3.org/2000/svg">
<g clip-path="url(#clip0_5_178)">
<mask id="mask0_5_178" style="mask-type:luminance" maskUnits="userSpaceOnUse" x="0" y="0" width="113" height="102">
<path d="M113 0.5H0V101.5H113V0.5Z" fill="white"/>
</mask>
<g mask="url(#mask0_5_178)">
<path d="M92.9057 33.2026C91.7033 32.7886 90.4906 32.405 89.2689 32.0522C89.4741 31.2105 89.6629 30.3791 89.8307 29.5622C92.584 16.1483 90.7841 5.34172 84.6362 1.78368C78.7417 -1.62728 69.1018 1.92942 59.3661 10.4334C58.4066 11.2729 57.4684 12.1367 56.5523 13.0239C55.9391 12.434 55.315 11.8555 54.6805 11.2887C44.4769 2.1961 34.2495 -1.63614 28.1083 1.93208C22.2191 5.35368 20.4752 15.5126 22.9539 28.2253C23.2006 29.4843 23.479 30.7369 23.789 31.9818C22.3413 32.3946 20.9444 32.8341 19.6075 33.3019C7.64455 37.488 0.00488281 44.0482 0.00488281 50.8528C0.00488281 57.8807 8.20641 64.9299 20.6663 69.2043C21.6765 69.5494 22.695 69.8691 23.721 70.1633C23.3878 71.5041 23.092 72.8539 22.8339 74.2113C20.4708 86.7034 22.3162 96.6222 28.1895 100.022C34.2557 103.533 44.4372 99.9247 54.3508 91.2267C55.1547 90.5196 55.9408 89.7924 56.7086 89.0459C57.7006 90.0065 58.7191 90.9392 59.7629 91.8429C69.3661 100.136 78.8503 103.485 84.7178 100.076C90.7783 96.5549 92.7481 85.8994 90.1908 72.9355C89.9893 71.9199 89.7635 70.9093 89.5134 69.9046C90.2283 69.692 90.9302 69.4732 91.6143 69.2455C104.567 64.9383 112.995 57.9747 112.995 50.8528C112.995 44.0234 105.109 37.4189 92.9057 33.2026ZM90.0964 64.6473C89.4785 64.8524 88.8447 65.0504 88.1985 65.2431C86.7685 60.6994 84.8388 55.8683 82.4771 50.8763C84.7307 46.0035 86.5862 41.2339 87.9761 36.7199C89.132 37.0557 90.2535 37.4096 91.3349 37.7831C101.791 41.396 108.169 46.7371 108.169 50.8528C108.169 55.2366 101.281 60.9276 90.0964 64.6473ZM85.4559 73.8764C86.5867 79.6086 86.7477 84.7915 85.9987 88.8434C85.326 92.4843 83.9729 94.9114 82.2992 95.8838C78.7387 97.9525 71.1236 95.2636 62.9111 88.1706C61.9403 87.3304 60.9929 86.4633 60.07 85.5702C63.2541 82.0756 66.4359 78.013 69.5414 73.5008C75.0038 73.0144 80.1643 72.2188 84.8441 71.133C85.0696 72.0425 85.2735 72.9572 85.4559 73.8764ZM38.5259 95.5263C35.047 96.7591 32.2761 96.7945 30.6011 95.8253C27.0371 93.7623 25.5554 85.7979 27.5764 75.115C27.8167 73.8526 28.0917 72.5971 28.4013 71.3501C33.0295 72.3778 38.1525 73.1167 43.6277 73.5623C46.7544 77.9775 50.028 82.0357 53.3272 85.5893C52.6261 86.2702 51.9084 86.9337 51.1747 87.5792C46.7906 91.4251 42.3976 94.1539 38.5259 95.5263ZM22.2279 64.6203C16.7183 62.7301 12.1682 60.2737 9.04943 57.5932C6.24673 55.1848 4.83214 52.7931 4.83214 50.8528C4.83214 46.7233 10.9659 41.4563 21.1964 37.8765C22.438 37.4424 23.7374 37.0327 25.0858 36.6482C26.4999 41.264 28.3545 46.0903 30.5927 50.9707C28.3254 55.9232 26.4443 60.8266 25.0165 65.4969C24.0799 65.2277 23.1501 64.9354 22.2279 64.6203ZM27.6912 27.2946C25.5677 16.403 26.9779 8.18699 30.527 6.12491C34.3069 3.9286 42.6655 7.06005 51.4757 14.9114C52.0502 15.4246 52.6154 15.9481 53.171 16.4818C49.8881 20.0199 46.6445 24.048 43.5456 28.437C38.2315 28.9314 33.1447 29.7252 28.468 30.7888C28.1798 29.631 27.9208 28.4656 27.6912 27.2946ZM76.4303 39.3738C75.3257 37.4588 74.18 35.5678 72.9942 33.7023C76.5993 34.1599 80.0535 34.7672 83.2971 35.5097C82.3234 38.6425 81.1097 41.9174 79.681 45.2752C78.6367 43.2866 77.5528 41.319 76.4303 39.3738ZM56.5545 19.9442C58.7808 22.3651 61.0106 25.0677 63.2038 28.0002C58.7548 27.7894 54.2983 27.7885 49.8492 27.9976C52.0446 25.0921 54.2934 22.393 56.5545 19.9442ZM36.5512 39.407C35.4426 41.3366 34.3791 43.2919 33.3614 45.2712C31.9561 41.9254 30.7534 38.6354 29.7713 35.4583C32.9951 34.7345 36.4329 34.1426 40.0151 33.6935C38.8161 35.5704 37.6611 37.4757 36.5512 39.407ZM40.1179 68.3568C36.417 67.9422 32.9276 67.381 29.7047 66.6766C30.7022 63.4428 31.9314 60.0828 33.3672 56.6652C34.3889 58.646 35.4568 60.6025 36.5702 62.533C37.7151 64.5175 38.9006 66.4613 40.1179 68.3568ZM56.6878 82.1026C54.3997 79.6254 52.1179 76.8847 49.8894 73.9371C52.053 74.0221 54.2585 74.0656 56.5002 74.0656C58.8033 74.0656 61.0799 74.0137 63.3207 73.9136C61.1205 76.9144 58.8991 79.6591 56.6878 82.1026ZM79.7263 56.4907C81.2367 59.9459 82.5097 63.2882 83.5205 66.4666C80.2446 67.217 76.7075 67.8213 72.9806 68.27C74.1748 66.3699 75.3313 64.4461 76.4492 62.4997C77.586 60.5214 78.6786 58.5178 79.7263 56.4907ZM72.2682 60.0793C70.5565 63.0634 68.7489 65.9908 66.8477 68.857C63.404 69.1018 59.9526 69.2234 56.5002 69.2215C52.9839 69.2215 49.5637 69.1117 46.2702 68.8973C44.3194 66.0377 42.4772 63.1052 40.7473 60.1058C39.0256 57.1224 37.4179 54.0744 35.9267 50.9684C37.4141 47.8618 39.0174 44.8123 40.7332 41.8266C42.4483 38.8401 44.2755 35.9205 46.2115 33.0733C49.5716 32.8181 53.0174 32.6852 56.4998 32.6852C59.9981 32.6852 63.4487 32.8195 66.808 33.0764C68.7244 35.9194 70.5403 38.8294 72.2523 41.8009C73.9737 44.7801 75.5983 47.8146 77.1233 50.8998C75.614 54.0165 73.9946 57.0783 72.2682 60.0793ZM82.2255 5.9805C86.0089 8.1706 87.4803 17.0023 85.1031 28.5841C84.9513 29.323 84.781 30.0756 84.5956 30.8389C79.9073 29.7527 74.817 28.9451 69.4875 28.4432C66.3829 24.0059 63.1658 19.9716 59.9363 16.4792C60.7827 15.6603 61.6492 14.8627 62.5351 14.0871C70.877 6.80134 78.6733 3.92462 82.2255 5.9805ZM56.5002 40.7262C62.0725 40.7262 66.59 45.2602 66.59 50.8528C66.59 56.4455 62.0725 60.9794 56.5002 60.9794C50.928 60.9794 46.4105 56.4455 46.4105 50.8528C46.4105 45.2602 50.928 40.7262 56.5002 40.7262Z" fill="#00D8FF"/>
</g>
</g>
<defs>
<clipPath id="clip0_5_178">
<rect width="113" height="101" fill="white" transform="translate(0 0.5)"/>
</clipPath>
</defs>
</svg>
