<svg width="117" height="88" viewBox="0 0 117 88" fill="none" xmlns="http://www.w3.org/2000/svg">
<g clip-path="url(#clip0_5_186)">
<mask id="mask0_5_186" style="mask-type:luminance" maskUnits="userSpaceOnUse" x="0" y="0" width="117" height="88">
<path d="M117 0.5H0V87.5H117V0.5Z" fill="white"/>
</mask>
<g mask="url(#mask0_5_186)">
<path d="M100.673 50.5767C96.6033 50.5976 93.0656 51.5695 90.1037 53.0064C89.0165 50.8722 87.9297 48.9709 87.7382 47.5761C87.5248 45.9494 87.2693 44.9562 87.5248 43.0123C87.7807 41.0684 88.9315 38.3002 88.91 38.0891C88.889 37.8779 88.6541 36.8847 86.3101 36.8638C83.9661 36.8425 81.9415 37.3074 81.7071 37.9201C81.4727 38.5327 81.0252 39.9274 80.7268 41.3638C80.3219 43.4772 76.0388 51.0199 73.5884 54.9711C72.7996 53.4292 72.1177 52.0766 71.9683 50.9991C71.7553 49.3723 71.4994 48.3791 71.7553 46.4352C72.0112 44.4913 73.162 41.7236 73.1405 41.512C73.119 41.3008 72.8846 40.3076 70.5406 40.2867C68.1961 40.2654 66.1716 40.7303 65.9376 41.343C65.7031 41.956 65.4472 43.3924 64.9573 44.7872C64.4669 46.1819 58.7772 58.7751 57.2855 62.0286C56.6827 63.3454 56.0503 64.6488 55.3889 65.9377C55.3889 65.9377 55.3674 66.0011 55.3034 66.1067C55.0956 66.5108 54.8827 66.9123 54.6645 67.3111V67.3319C54.3446 67.9029 54.0037 68.4308 53.8332 68.4308C53.7053 68.4308 53.4708 66.9096 53.8757 64.8388C54.7281 60.4653 56.7526 53.6616 56.7316 53.4292C56.7316 53.3023 57.115 52.1192 55.4104 51.5061C53.7478 50.8935 53.1514 51.9076 53.002 51.9076C52.853 51.9076 52.746 52.2669 52.746 52.2669C52.746 52.2669 54.6006 44.6181 49.2088 44.6181C45.842 44.6181 41.1961 48.2735 38.8946 51.5695C36.2782 52.9812 33.6642 54.3969 31.0523 55.8167C29.7955 56.514 28.4953 57.2114 27.2806 57.8662C27.1951 57.7819 27.1101 57.6759 27.0247 57.5916C20.5036 50.6823 8.44224 45.8013 8.95363 36.5258C9.14558 33.145 10.3174 24.2706 32.118 13.4948C50.0611 4.72589 64.3394 7.15555 66.8114 12.5437C70.3486 20.235 59.1611 34.5184 40.6207 36.5888C33.5457 37.3709 29.8376 34.6662 28.9002 33.6521C27.92 32.5954 27.7705 32.5319 27.4081 32.7436C26.8117 33.0607 27.1951 34.0114 27.4081 34.5606C27.9625 35.997 30.2425 38.5327 34.0996 39.7797C37.5094 40.8781 45.799 41.4911 55.8363 37.6455C67.0668 33.3349 75.8469 21.3547 73.2684 11.3184C70.6895 1.13397 53.6413 -2.2255 37.5094 3.45805C27.92 6.83927 17.5203 12.1635 10.0404 19.0941C1.15387 27.3341 -0.252795 34.4971 0.322578 37.4977C2.39008 48.1466 17.2008 55.0772 23.125 60.2115C22.8266 60.3805 22.5492 60.5287 22.3152 60.6556C19.3529 62.1133 8.05836 67.9659 5.24547 74.1569C2.04915 81.1717 5.75732 86.201 8.2078 86.8766C15.8156 88.9687 23.6364 85.2077 27.8345 78.9954C32.0326 72.7835 31.5212 64.712 29.5821 61.0145C29.5606 60.9723 29.5396 60.9297 29.4966 60.8876C30.264 60.444 31.0523 59.9791 31.8196 59.5355C33.2299 58.7089 34.6581 57.9127 36.1032 57.1475C35.3783 59.1127 34.8455 61.4581 34.59 64.8388C34.2701 68.8114 35.9107 73.9666 38.0633 75.9948C39.0225 76.8829 40.1518 76.9038 40.8766 76.9038C43.3911 76.9038 44.5208 74.833 45.778 72.382C47.3122 69.3819 48.6974 65.8955 48.6974 65.8955C48.6974 65.8955 46.9713 75.3192 51.6597 75.3192C53.3644 75.3192 55.0905 73.1215 55.8578 72.0018V72.0227C55.8578 72.0227 55.9003 71.9593 55.9858 71.8115C56.1562 71.5369 56.2627 71.3675 56.2627 71.3675V71.3258C56.9446 70.1422 58.4792 67.4588 60.7592 63.0005C63.7001 57.2535 66.5344 50.0697 66.5344 50.0697C66.5344 50.0697 66.7903 51.8233 67.6637 54.7391C68.1755 56.4506 69.2404 58.3311 70.0931 60.1481C69.4113 61.0992 68.9849 61.6271 68.9849 61.6271L69.0064 61.6484C68.452 62.3666 67.8556 63.1482 67.1948 63.9095C64.8718 66.6559 62.1019 69.8046 61.718 70.7127C61.2701 71.7902 61.3771 72.5723 62.2299 73.2063C62.8477 73.6712 63.9555 73.7341 65.0853 73.6712C67.1738 73.523 68.644 73.0159 69.3683 72.6992C70.4981 72.2977 71.8193 71.6847 73.055 70.7761C75.3355 69.1068 76.7202 66.7193 76.5927 63.5715C76.5287 61.8387 75.9534 60.106 75.25 58.4788C75.4635 58.1834 75.6549 57.8875 75.8684 57.5916C79.4696 52.3725 82.2615 46.6463 82.2615 46.6463C82.2615 46.6463 82.5174 48.3999 83.3907 51.3162C83.8171 52.7952 84.6909 54.4011 85.4578 55.9644C82.0695 58.6904 79.981 61.8595 79.2351 63.9303C77.8929 67.776 78.9367 69.5083 80.9188 69.9098C81.8136 70.1001 83.0923 69.6773 84.0301 69.2758C85.2233 68.8957 86.63 68.2409 87.9727 67.2685C90.2532 65.5996 92.4477 63.2751 92.3197 60.1273C92.2558 58.6904 91.8723 57.2744 91.3395 55.901C94.2163 54.7183 97.9245 54.0631 102.655 54.6123C112.799 55.7954 114.802 62.0707 114.418 64.7124C114.035 67.3532 111.904 68.7901 111.201 69.2337C110.497 69.6778 110.263 69.8255 110.327 70.1422C110.412 70.6071 110.753 70.5863 111.35 70.5015C112.181 70.3538 116.678 68.3673 116.869 63.5076C117.189 57.2957 111.222 50.5133 100.673 50.5767ZM22.4217 76.7347C19.0545 80.3688 14.3665 81.7422 12.3419 80.5804C10.1684 79.3334 11.0207 73.9666 15.1548 70.1214C17.6693 67.776 20.9085 65.5992 23.061 64.2684C23.551 63.9725 24.2758 63.5502 25.1496 63.0218C25.2986 62.9371 25.384 62.8949 25.384 62.8949L25.8954 62.5777C27.4081 68.0714 25.9594 72.9104 22.4217 76.7347ZM46.9288 60.2115C45.7565 63.0431 43.3061 70.2904 41.8144 69.8889C40.5357 69.5509 39.7469 64.0572 41.5585 58.627C42.4748 55.901 44.4139 52.6471 45.5436 51.3797C47.3762 49.351 49.4007 48.6745 49.8906 49.4992C50.509 50.5767 47.6531 58.4366 46.9288 60.2115ZM67.1523 69.8042C66.6619 70.0579 66.1935 70.227 65.9801 70.1001C65.8311 70.0154 66.1935 69.6773 66.1935 69.6773C66.1935 69.6773 68.7294 66.9731 69.7307 65.7474C70.3066 65.0292 70.988 64.1841 71.7128 63.233V63.5076C71.7128 66.7406 68.559 68.917 67.1523 69.8042ZM82.7514 66.2757C82.389 66.022 82.4529 65.1769 83.6677 62.5356C84.1366 61.5002 85.2443 59.7679 87.1414 58.0986C87.3544 58.7747 87.5038 59.4299 87.4823 60.0425C87.4608 64.1206 84.5204 65.6418 82.7514 66.2757Z" fill="#CD6799"/>
</g>
</g>
<defs>
<clipPath id="clip0_5_186">
<rect width="117" height="87" fill="white" transform="translate(0 0.5)"/>
</clipPath>
</defs>
</svg>
