<svg width="115" height="70" viewBox="0 0 115 70" fill="none" xmlns="http://www.w3.org/2000/svg">
<path d="M28.8438 23.5378C32.6646 8.25439 42.2167 0.612793 57.5 0.612793C80.425 0.612793 83.2906 17.8065 94.753 20.6721C102.395 22.5826 109.081 19.7169 114.812 12.0753C110.992 27.3586 101.44 35.0003 86.1562 35.0003C63.2313 35.0003 60.3656 17.8065 48.9031 14.9409C41.2615 13.0305 34.575 15.8961 28.8438 23.5378ZM0.1875 57.9253C4.0083 42.6419 13.5604 35.0003 28.8438 35.0003C51.7687 35.0003 54.6344 52.194 66.0969 55.0596C73.7385 56.9701 80.425 54.1044 86.1562 46.4628C82.3354 61.7461 72.7833 69.3874 57.5 69.3874C34.575 69.3874 31.7094 52.194 20.2469 49.3284C12.6052 47.418 5.9187 50.2836 0.1875 57.9253Z" fill="#44A8B3"/>
</svg>
