<svg width="52" height="50" viewBox="0 0 52 50" fill="none" xmlns="http://www.w3.org/2000/svg">
<path d="M26.0928 0C11.9176 0 0.423828 11.1942 0.423828 25C0.423828 38.8058 11.9176 50 26.0928 50C40.2681 50 51.7619 38.8058 51.7619 25C51.7619 11.1942 40.2681 0 26.0928 0ZM38.4289 18.8448C38.446 19.1072 38.446 19.3805 38.446 19.6485C38.446 27.8403 32.0402 37.2768 20.3344 37.2768C16.7249 37.2768 13.3787 36.2555 10.5596 34.4978C11.0753 34.5535 11.5681 34.5758 12.0952 34.5758C15.0746 34.5758 17.8134 33.5937 19.9965 31.9308C17.2004 31.875 14.8512 30.0893 14.049 27.634C15.0288 27.7735 15.9112 27.7735 16.9196 27.5223C15.4799 27.2375 14.1858 26.4758 13.2573 25.3672C12.3287 24.2583 11.823 22.8705 11.8259 21.4397V21.3617C12.6682 21.8248 13.6594 22.1093 14.6965 22.1485C13.8247 21.5825 13.1097 20.8158 12.615 19.9165C12.1202 19.017 11.861 18.0125 11.8603 16.9922C11.8603 15.837 12.1697 14.7824 12.7255 13.8672C14.3235 15.7832 16.3176 17.3502 18.5782 18.4663C20.8387 19.5825 23.3151 20.223 25.8464 20.346C24.947 16.1328 28.1785 12.7232 32.0631 12.7232C33.8967 12.7232 35.5469 13.471 36.7099 14.6763C38.148 14.4141 39.5232 13.8895 40.7493 13.1864C40.2738 14.6205 39.2768 15.8315 37.9533 16.596C39.2367 16.462 40.4743 16.116 41.6204 15.6305C40.7552 16.8695 39.6723 17.9687 38.4289 18.8448Z" fill="white"/>
</svg>
