<svg width="50" height="50" viewBox="0 0 50 50" fill="none" xmlns="http://www.w3.org/2000/svg">
<path d="M25 0C11.1942 0 0 11.1942 0 25C0 38.8058 11.1942 50 25 50C38.8058 50 50 38.8058 50 25C50 11.1942 38.8058 0 25 0ZM37.0145 18.8448C37.0312 19.1072 37.0312 19.3805 37.0312 19.6485C37.0312 27.8403 30.7923 37.2768 19.3917 37.2768C15.8762 37.2768 12.6172 36.2555 9.87165 34.4978C10.3739 34.5535 10.8538 34.5758 11.3672 34.5758C14.269 34.5758 16.9363 33.5937 19.0625 31.9308C16.3393 31.875 14.0513 30.0893 13.2701 27.634C14.2243 27.7735 15.0837 27.7735 16.0658 27.5223C14.6636 27.2375 13.4033 26.4758 12.499 25.3672C11.5946 24.2583 11.102 22.8705 11.1049 21.4397V21.3617C11.9252 21.8248 12.8906 22.1093 13.9007 22.1485C13.0516 21.5825 12.3552 20.8158 11.8734 19.9165C11.3916 19.017 11.1391 18.0125 11.1384 16.9922C11.1384 15.837 11.4397 14.7824 11.981 13.8672C13.5374 15.7832 15.4795 17.3502 17.6812 18.4663C19.8828 19.5825 22.2947 20.223 24.76 20.346C23.884 16.1328 27.0313 12.7232 30.8147 12.7232C32.6005 12.7232 34.2077 13.471 35.3403 14.6763C36.741 14.4141 38.0803 13.8895 39.2745 13.1864C38.8113 14.6205 37.8403 15.8315 36.5513 16.596C37.8013 16.462 39.0067 16.116 40.1228 15.6305C39.2802 16.8695 38.2255 17.9687 37.0145 18.8448Z" fill="#121129"/>
</svg>
