<svg width="120" height="120" viewBox="0 0 120 120" fill="none" xmlns="http://www.w3.org/2000/svg">
<g clip-path="url(#clip0_5_218)">
<path d="M108.281 0H11.7188C5.24666 0 0 5.24666 0 11.7188V108.281C0 114.753 5.24666 120 11.7188 120H108.281C114.753 120 120 114.753 120 108.281V11.7188C120 5.24666 114.753 0 108.281 0Z" fill="#3178C6"/>
<path d="M108.281 0H11.7188C5.24666 0 0 5.24666 0 11.7188V108.281C0 114.753 5.24666 120 11.7188 120H108.281C114.753 120 120 114.753 120 108.281V11.7188C120 5.24666 114.753 0 108.281 0Z" fill="#3178C6"/>
<path fill-rule="evenodd" clip-rule="evenodd" d="M74.2826 95.49V107.223C76.1899 108.201 78.4458 108.934 81.0502 109.423C83.6545 109.912 86.3993 110.156 89.2849 110.156C92.0972 110.156 94.7686 109.887 97.2996 109.35C99.8306 108.812 102.05 107.926 103.957 106.691C105.865 105.457 107.375 103.844 108.487 101.851C109.6 99.8592 110.156 97.3966 110.156 94.4634C110.156 92.3367 109.838 90.473 109.203 88.872C108.567 87.2709 107.65 85.8471 106.451 84.6005C105.253 83.3538 103.817 82.2354 102.142 81.2454C100.466 80.2554 98.5774 79.3205 96.4744 78.4406C94.9338 77.805 93.5522 77.1879 92.3295 76.5891C91.1067 75.99 90.0675 75.379 89.2116 74.7558C88.3556 74.1323 87.6954 73.4723 87.2309 72.7758C86.7663 72.079 86.5338 71.2908 86.5338 70.4107C86.5338 69.6042 86.7417 68.877 87.1575 68.2291C87.5733 67.5813 88.1602 67.0254 88.9181 66.5609C89.6763 66.0966 90.6054 65.7359 91.7058 65.4792C92.8064 65.2226 94.0289 65.0944 95.374 65.0944C96.352 65.0944 97.3852 65.1677 98.4734 65.3142C99.5616 65.4609 100.656 65.6871 101.756 65.9925C102.857 66.2981 103.927 66.6832 104.966 67.1475C106.005 67.612 106.965 68.1497 107.845 68.7609V57.7978C106.06 57.1134 104.11 56.6062 101.995 56.2762C99.8796 55.9462 97.4524 55.7812 94.7138 55.7812C91.9259 55.7812 89.2849 56.0808 86.7907 56.6796C84.2965 57.2784 82.1018 58.2134 80.2064 59.4844C78.3112 60.7556 76.8136 62.3749 75.7132 64.3427C74.6128 66.3103 74.0625 68.663 74.0625 71.4007C74.0625 74.8962 75.0712 77.8784 77.0887 80.3473C79.106 82.8159 82.1688 84.9059 86.2772 86.617C87.8911 87.277 89.3951 87.9246 90.7889 88.5602C92.1827 89.1959 93.3872 89.8559 94.4018 90.5402C95.4166 91.2246 96.2175 91.9702 96.8046 92.7769C97.3915 93.5834 97.6849 94.5 97.6849 95.5268C97.6849 96.2845 97.5014 96.9872 97.1346 97.635C96.7678 98.2828 96.2114 98.8448 95.4656 99.3216C94.7198 99.7983 93.7905 100.171 92.678 100.44C91.5652 100.709 90.2632 100.843 88.7714 100.843C86.2282 100.843 83.7096 100.397 81.2152 99.5048C78.7209 98.6128 76.41 97.2745 74.2826 95.49ZM54.5578 66.5817H69.6094V56.9531H27.6562V66.5817H42.6342V109.453H54.5578V66.5817Z" fill="white"/>
</g>
<defs>
<clipPath id="clip0_5_218">
<rect width="120" height="120" fill="white"/>
</clipPath>
</defs>
</svg>
