<svg width="113" height="112" viewBox="0 0 113 112" fill="none" xmlns="http://www.w3.org/2000/svg">
<path d="M101.722 17.605L81.5414 7.88899C80.4016 7.33948 79.1193 7.15814 77.872 7.37011C76.6246 7.58208 75.4741 8.17686 74.5799 9.07199L8.51735 69.3C7.71582 70.0273 7.23603 71.0432 7.18352 72.1243C7.13101 73.2053 7.51008 74.2629 8.23735 75.0645C8.32485 75.159 8.41235 75.25 8.50685 75.334L13.9004 80.234C14.6052 80.8754 15.5124 81.2497 16.4644 81.2919C17.4164 81.3341 18.3531 81.0416 19.1119 80.465L98.6844 20.125C99.2854 19.6689 100.002 19.3897 100.753 19.3186C101.504 19.2476 102.26 19.3877 102.936 19.7231C103.611 20.0585 104.18 20.5758 104.578 21.217C104.976 21.8581 105.187 22.5975 105.187 23.352V23.1175C105.187 21.9656 104.862 20.8372 104.249 19.862C103.636 18.8868 102.76 18.1045 101.722 17.605Z" fill="#0065A9"/>
<path d="M101.722 94.395L81.5414 104.115C80.4014 104.662 79.1194 104.843 77.8724 104.631C76.6254 104.419 75.4749 103.825 74.5799 102.932L8.51735 42.7C7.71582 41.9727 7.23603 40.9568 7.18352 39.8758C7.13101 38.7947 7.51008 37.7371 8.23735 36.9355C8.32485 36.841 8.41235 36.75 8.50685 36.666L13.9004 31.766C14.6059 31.1219 15.5151 30.7459 16.4695 30.7037C17.4239 30.6615 18.3628 30.9557 19.1224 31.535L98.6844 91.875C99.2854 92.3311 100.002 92.6104 100.753 92.6814C101.504 92.7524 102.26 92.6123 102.936 92.2769C103.611 91.9415 104.18 91.4242 104.578 90.783C104.976 90.1419 105.187 89.4025 105.187 88.648V88.9C105.183 90.0488 104.856 91.1733 104.244 92.1451C103.631 93.1168 102.757 93.8965 101.722 94.395Z" fill="#007ACC"/>
<path d="M81.5414 104.115C80.4014 104.662 79.1193 104.843 77.8724 104.631C76.6254 104.419 75.4749 103.825 74.5799 102.932C75.0825 103.428 75.7204 103.764 76.4135 103.899C77.1066 104.034 77.8242 103.962 78.4764 103.691C79.1285 103.42 79.6862 102.963 80.0795 102.376C80.4728 101.79 80.6843 101.1 80.6874 100.394V11.6059C80.688 10.8964 80.478 10.2027 80.084 9.61268C79.69 9.02265 79.1297 8.56282 78.4742 8.29146C77.8187 8.0201 77.0973 7.94941 76.4016 8.08834C75.7058 8.22728 75.0669 8.56959 74.5659 9.07191C75.4602 8.17711 76.6105 7.5823 77.8576 7.36974C79.1048 7.15718 80.3871 7.33738 81.5274 7.88541L101.704 17.5874C102.746 18.0844 103.625 18.8657 104.241 19.8411C104.858 20.8164 105.185 21.9462 105.187 23.0999V88.8999C105.187 90.0527 104.862 91.1822 104.248 92.1581C103.635 93.134 102.758 93.9167 101.718 94.4159L81.5414 104.115Z" fill="#1F9CF0"/>
</svg>
