<svg width="251" height="250" viewBox="0 0 251 250" fill="none" xmlns="http://www.w3.org/2000/svg">
<rect x="26.5" y="24.8334" width="197" height="197" rx="98.5" fill="#121129" stroke="#3631A7" stroke-width="3"/>
<g clip-path="url(#clip0_46_17)">
<path d="M138.095 119.429C141.643 119.429 144.929 120.548 147.619 122.429V112.286C147.619 109.643 145.5 107.524 142.857 107.524H133.333V102.762C133.333 100.119 131.214 98 128.571 98H119.048C116.405 98 114.286 100.119 114.286 102.762V107.524H104.762C102.119 107.524 100.024 109.643 100.024 112.286L100 138.476C100 141.119 102.119 143.238 104.762 143.238H123.048C121.84 140.699 121.294 137.895 121.462 135.088C121.63 132.281 122.506 129.563 124.008 127.186C125.511 124.809 127.59 122.851 130.054 121.494C132.517 120.138 135.283 119.427 138.095 119.429ZM119.048 102.762H128.571V107.524H119.048V102.762Z" fill="white"/>
<path d="M138.095 124.191C131.524 124.191 126.19 129.524 126.19 136.095C126.19 142.667 131.524 148 138.095 148C144.667 148 150 142.667 150 136.095C150 129.524 144.667 124.191 138.095 124.191ZM142.024 141.691L136.905 136.572V128.952H139.286V135.595L143.69 140L142.024 141.691Z" fill="white"/>
</g>
<rect x="0.5" y="0.5" width="249" height="249" rx="124.5" stroke="#222142"/>
<defs>
<clipPath id="clip0_46_17">
<rect width="50" height="50" fill="white" transform="translate(100 98)"/>
</clipPath>
</defs>
</svg>
